<?xml version="1.0" encoding="UTF-8"?>
<svg width="32px" height="32px" viewBox="0 0 32 32" version="1.1" xmlns="http://www.w3.org/2000/svg" xmlns:xlink="http://www.w3.org/1999/xlink">
    <!-- Generator: Sketch 57.1 (83088) - https://sketch.com -->
    <title>logoNav</title>
    <desc>Created with Sketch.</desc>
    <g id="logoNav" stroke="none" stroke-width="1" fill="none" fill-rule="evenodd">
        <path d="M4.30628706,17.5 L30.5,17.5 L25.1666667,21.5 L5.63962039,21.5 L4.30628706,17.5 Z" id="Rectangle" stroke="#000000" fill="#D8D8D8" stroke-linejoin="round"></path>
        <rect id="Rectangle" stroke="#000000" fill="#27B9E9" x="8.5" y="15.5" width="12" height="2"></rect>
        <rect id="Rectangle-Copy-3" stroke="#000000" fill="#DDDDDD" x="13.5" y="13.5" width="6" height="2"></rect>
        <rect id="Rectangle-Copy-4" stroke="#000000" fill="#DDDDDD" x="15.5" y="11.5" width="4" height="2"></rect>
        <rect id="Rectangle-Copy" stroke="#000000" fill="#27B9E9" x="22.5" y="15.5" width="4" height="2"></rect>
        <rect id="Rectangle-Copy-2" fill="#000000" x="7" y="13" width="4" height="1"></rect>
        <rect id="Rectangle-Copy-17" fill="#000000" x="25" y="15" width="4" height="1"></rect>
        <rect id="Rectangle-Copy-9" fill="#000000" x="3" y="24" width="4" height="1" rx="0.5"></rect>
        <rect id="Rectangle-Copy-13" fill="#000000" x="8" y="26" width="4" height="1" rx="0.5"></rect>
        <rect id="Rectangle-Copy-16" fill="#000000" x="19" y="26" width="8" height="1" rx="0.5"></rect>
        <rect id="Rectangle-Copy-11" fill="#000000" x="11" y="24" width="19" height="1" rx="0.5"></rect>
        <rect id="Rectangle-Copy-10" fill="#000000" x="8" y="24" width="2" height="1" rx="0.5"></rect>
        <rect id="Rectangle-Copy-12" fill="#000000" x="5" y="26" width="2" height="1" rx="0.5"></rect>
        <rect id="Rectangle-Copy-14" fill="#000000" x="13" y="26" width="2" height="1" rx="0.5"></rect>
        <rect id="Rectangle-Copy-15" fill="#000000" x="16" y="26" width="2" height="1" rx="0.5"></rect>
        <rect id="Rectangle-Copy-8" fill="#000000" x="15" y="7" width="4" height="1"></rect>
        <rect id="Rectangle-Copy-6" fill="#000000" x="15" y="6" width="1" height="3"></rect>
        <rect id="Rectangle-Copy-7" fill="#000000" x="9" y="13" width="1" height="3"></rect>
        <rect id="Rectangle-Copy-5" fill="#000000" x="17" y="6" width="1" height="6"></rect>
    </g>
</svg>